<svg width="30" height="36" viewBox="0 0 30 36" fill="none" xmlns="http://www.w3.org/2000/svg">
<path d="M24.0696 24H21.1316V28H24.0696M24.0696 16H21.1316V20H24.0696M27.0076 32H15.2557V28H18.1937V24H15.2557V20H18.1937V16H15.2557V12H27.0076M12.3177 8H9.37972V4H12.3177M12.3177 16H9.37972V12H12.3177M12.3177 24H9.37972V20H12.3177M12.3177 32H9.37972V28H12.3177M6.44175 8H3.50377V4H6.44175M6.44175 16H3.50377V12H6.44175M6.44175 24H3.50377V20H6.44175M6.44175 32H3.50377V28H6.44175M15.2557 8V0H0.565796V36H29.9456V8H15.2557Z" fill="#969696"/>
</svg>
