<svg width="38" height="35" viewBox="0 0 38 35" fill="none" xmlns="http://www.w3.org/2000/svg">
<path d="M4.47556 3.88889H33.5033L31.5189 1.94444H6.18556L4.47556 3.88889ZM37.0289 4.33611C37.6411 4.99722 38 5.83333 38 6.80556V31.1111C38 32.1425 37.5552 33.1317 36.7633 33.861C35.9715 34.5903 34.8976 35 33.7778 35H4.22222C3.10242 35 2.02848 34.5903 1.23666 33.861C0.44484 33.1317 0 32.1425 0 31.1111V6.80556C0 5.83333 0.358889 4.99722 0.971111 4.33611L3.88444 1.06944C4.47556 0.408333 5.34111 0 6.33333 0H31.6667C32.6589 0 33.5244 0.408333 34.0944 1.06944L37.0289 4.33611ZM6.33333 29.1667H19V23.3333H6.33333V29.1667Z" fill="#969696"/>
</svg>
